<svg width="7215" height="4390" viewBox="0 0 7215 4390" fill="none" xmlns="http://www.w3.org/2000/svg">
<g clip-path="url(#clip0_30_184)">
<mask id="mask0_30_184" style="mask-type:alpha" maskUnits="userSpaceOnUse" x="2565" y="748" width="2172" height="3025">
<path d="M2565.67 3159.13L3714.86 749.168C3892.94 950.956 4513.32 1048.01 4735.76 965.554L4714.6 3663.19C4251.96 3943.17 2898.89 3647.33 2565.67 3159.13Z" fill="#D9D9D9" stroke="#F05069"/>
</mask>
<g mask="url(#mask0_30_184)">
<path d="M5552.45 990.8C4984.79 1441.96 3600.86 1445.84 3332.07 832.757" stroke="#F05069" stroke-width="203"/>
<path d="M3573.44 741.87C3549.41 1051.27 5012.23 1329.98 4828.49 882.118" stroke="#F05069" stroke-width="203"/>
<path d="M5585.41 1134.25C5507.16 1177.02 3883.51 1979.4 3103.22 1069.19M5571.19 1361.19C4710.44 2153.56 3218.73 3219.9 2512.81 1546.71M5485.48 1189.36C5144.12 1453.79 3444.69 3116.5 2662.32 1410.11M5599.91 1836.95C4838.84 2631.17 3197.88 3728.28 2268.78 2039.19M5610.34 1582.76C4849.26 2376.98 3211 3489.35 2281.91 1800.26M2180.73 2299.48C2243.41 2430.06 3145.98 4147.2 5473.3 2324.42M2897.55 1313.2C3201.98 2056.2 3884.89 2248.66 5263.97 1139.77" stroke="#F05069" stroke-width="203"/>
<path d="M2818.62 1337.81C3815.32 1791.8 3665.51 1771.56 4957.02 1350.91" stroke="#F05069" stroke-width="203"/>
<path d="M4748.32 3016.83C4767.44 3097.94 4786.56 3179.05 4805.68 3260.16C4754.26 3270.15 4704.32 3280.4 4653.34 3291.33C4207.04 3388.31 3694.23 3537.28 3217.77 3377.18C2748.42 3229.85 2362.37 2939.86 1993.82 2645.2C1954.04 2612.81 1913.45 2579.25 1872 2544.5C1916 2575.96 1959.09 2606.18 2001.31 2635.2C2390.25 2899.62 2800.84 3154.86 3249.24 3256.21C3700.3 3367.06 4138.18 3199.2 4594.32 3061.28C4645.45 3046.01 4695.93 3031.33 4748.32 3016.83Z" fill="#F05069"/>
<path d="M2220.24 3190.98C2213.08 3215.33 2205.92 3239.67 2198.76 3264.01C2249.85 3283.46 2294.73 3301.38 2343.93 3321.1C2756.53 3495.4 3210.11 3729.14 3683.19 3759.58C4150.53 3818.53 4617.05 3839.46 5083.74 3843.41C5135.15 3843.74 5187.89 3843.91 5242 3843.94C5244 3818.65 5246 3793.35 5248 3768.05C5194.58 3759.59 5142.53 3751.41 5091.8 3743.5C4631.44 3671.35 4168.32 3616.2 3709.21 3558.26C3238.56 3525.27 2844.27 3347.1 2374.48 3225.64C2322.09 3212.89 2274.24 3202.47 2220.24 3190.98Z" fill="#F05069"/>
<path d="M2354.5 3060.5C3263.5 3591 4462 3361 4937 3591" stroke="#F05069" stroke-width="203"/>
</g>
<path d="M3763.73 702.212C3747.66 770.739 3940.42 874.582 4194.21 934.112C4448.14 993.674 4666.85 986.35 4682.93 917.822C4693.96 870.788 4606.83 807.221 4469.17 752.718L4449.12 838.189C4428.16 927.566 4239.89 888.174 4202.38 879.373C4164.88 870.579 3978.69 822.136 3999.64 732.807L4019.35 648.774C3876.68 637.969 3774.51 656.246 3763.73 702.212Z" fill="#323232"/>
<path d="M4110.22 462.342L4044.14 744.084C4037.18 773.75 4114.15 817.142 4216.05 841.045C4318.03 864.964 4406.2 860.309 4413.16 830.642L4479.24 548.901C4486.21 519.226 4409.3 475.801 4307.34 451.883C4205.43 427.98 4117.19 432.668 4110.22 462.342Z" fill="#323232"/>
<path d="M3494.23 4073.23C3596.1 4097.12 3724.66 4101.87 3731.6 4072.3L3797.7 3790.5L3348.11 3685.04L3282.01 3966.84C3275.13 3996.42 3392.38 4049.34 3494.23 4073.23Z" fill="#323232"/>
<path d="M1502.2 1784.48C1653.34 1920.73 1732.26 2117.18 1738.95 2373.8C1746.15 2649.59 1677.92 2862.41 1534.24 3012.27C1392.05 3162.09 1185.26 3240.54 913.894 3247.62C756.087 3251.74 608.314 3244.53 470.578 3225.99L429.006 1633.17C565.588 1607.47 712.782 1592.56 870.589 1588.44C1140.48 1581.4 1351.02 1646.74 1502.2 1784.48ZM1444.73 2381.48C1434.99 2008.34 1250.93 1826.45 892.541 1835.81C836.498 1837.27 785.731 1843.02 740.242 1853.06L769.921 2990.16C815.871 2997.82 866.869 3000.91 922.913 2999.45C1102.84 2994.75 1235.76 2941.84 1321.67 2840.72C1409.06 2739.56 1450.08 2586.48 1444.73 2381.48ZM2571.84 2378.81C2561.92 2359.4 2550.48 2341.93 2537.52 2326.39C2485.68 2262.8 2414.78 2232.19 2324.82 2234.53C2236.33 2236.84 2167.86 2271.1 2119.41 2337.3C2070.92 2402.03 2048.29 2496.33 2051.52 2620.22C2054.76 2744.11 2082.29 2837.84 2134.13 2901.42C2172.87 2947.88 2221.88 2976.31 2281.15 2986.73L2181.37 3195.39C2081.96 3173.66 1997.49 3128.39 1927.95 3059.55C1823.38 2954.55 1768.7 2810.6 1763.93 2627.73C1759.16 2444.85 1806.25 2298.25 1905.2 2187.93C2005.63 2077.57 2143.6 2020.1 2319.1 2015.52C2469.39 2011.6 2594.21 2047.84 2693.57 2124.25L2571.84 2378.81ZM2742.78 550.219L2280.27 550.219L2280.26 1909L1966.02 1909L1966.02 550.219L1503.5 550.219L1503.5 293.511L2742.78 293.511L2742.78 550.219ZM3166.67 1134.89C3155 1103.35 3139.94 1075.91 3121.48 1052.57C3071.32 987.655 3001.24 955.198 2911.25 955.198C2822.73 955.198 2753.39 987.655 2703.22 1052.57C2653.06 1116.01 2627.98 1209.69 2627.98 1333.62C2627.98 1457.55 2653.06 1551.97 2703.22 1616.88C2749.49 1675.39 2812.07 1706.92 2890.96 1711.47L2790.42 1921.71C2670.48 1901.99 2571.33 1851.28 2492.99 1769.58C2391.19 1661.88 2340.29 1516.56 2340.29 1333.62C2340.29 1150.68 2391.19 1005.36 2492.99 897.66C2596.26 789.961 2735.68 736.111 2911.25 736.111C3068.27 736.111 3196.37 779.187 3295.57 865.335L3166.67 1134.89Z" fill="#323232"/>
<path d="M5520.22 2093.58C5626.27 2198.55 5681.68 2342.47 5686.45 2525.35C5691.23 2708.23 5643.4 2854.85 5542.97 2965.2C5442.54 3075.56 5304.57 3133.03 5129.07 3137.61C5099.64 3138.38 5071.19 3137.6 5043.72 3135.29L5047.37 2911.69C5070.98 2917 5096.31 2919.3 5123.35 2918.6C5213.32 2916.25 5282.55 2882.71 5331.03 2817.98C5379.48 2751.78 5402.09 2656.74 5398.86 2532.85C5395.63 2408.97 5368.11 2315.97 5316.31 2253.86C5264.47 2190.28 5193.57 2159.66 5103.61 2162.01C5088.32 2162.41 5073.63 2163.76 5059.54 2166.07L5063.15 1944.63C5074.56 1943.85 5086.14 1943.3 5097.89 1943C5273.4 1938.42 5414.17 1988.61 5520.22 2093.58ZM6318.32 2480.08L6891.57 3069.47L6548.67 3078.42L6086.3 2581.33L6081.88 2581.44L6095.16 3090.26L5807.57 3097.76L5764.26 1438.58L6051.85 1431.07L6076.85 2388.98L6081.28 2388.86L6507.58 1928.34L6850.48 1919.39L6318.32 2480.08Z" fill="#323232"/>
</g>
<defs>
<clipPath id="clip0_30_184">
<rect width="7215" height="4390" fill="white"/>
</clipPath>
</defs>
</svg>
